<?xml version="1.0" encoding="iso-8859-1"?>
<!-- Generator: Adobe Illustrator 19.0.0, SVG Export Plug-In . SVG Version: 6.00 Build 0)  -->
<svg version="1.1" id="Layer_1" xmlns="http://www.w3.org/2000/svg" xmlns:xlink="http://www.w3.org/1999/xlink" x="0px" y="0px"
	 viewBox="0 0 512 512" style="enable-background:new 0 0 512 512;" xml:space="preserve">
<path style="fill:#FFFFFF;" d="M256,508C117.048,508,4,394.952,4,256S117.048,4,256,4s252,113.048,252,252S394.952,508,256,508z"/>
<path style="fill:#AAC1CE;" d="M256,8c136.744,0,248,111.256,248,248S392.744,504,256,504S8,392.744,8,256S119.256,8,256,8 M256,0
	C114.616,0,0,114.616,0,256s114.616,256,256,256s256-114.616,256-256S397.384,0,256,0L256,0z"/>
<path d="M185.792,212.64c0,0,0-1.072,0-12.864c0-15.664,17.52-38.96,51.984-40.576v-10.92c-11.192-6.36-18.76-18.36-18.76-32.152
	c0-20.424,16.56-36.976,36.976-36.976c20.424,0,36.976,16.56,36.976,36.976c0,13.792-7.568,25.8-18.76,32.152v10.92
	c34.464,1.608,51.984,24.912,51.984,40.576c0,11.792,0,12.864,0,12.864H185.792z"/>
<rect x="154.16" y="267.752" style="fill:#E04F5F;" width="203.68" height="78.784"/>
<g style="opacity:0.35;">
	<polygon style="fill:#FFFFFF;" points="154.16,317.6 154.16,267.744 204.016,267.744 	"/>
</g>
<g>
	<path style="fill:#FFFFFF;" d="M222.016,307.936h-11.608v10.768h12.936v3.232h-16.8v-29.864h16.136v3.232h-12.272v9.44h11.608
		V307.936z"/>
	<path style="fill:#FFFFFF;" d="M228.2,306.296c0-2.216-0.048-4.032-0.176-5.808h3.464l0.216,3.544h0.088
		c1.072-2.04,3.544-4.04,7.096-4.04c2.968,0,7.576,1.776,7.576,9.136v12.808h-3.904v-12.36c0-3.464-1.288-6.344-4.968-6.344
		c-2.56,0-4.56,1.824-5.224,3.992c-0.168,0.488-0.264,1.152-0.264,1.816v12.896h-3.896v-15.64H228.2z"/>
	<path style="fill:#FFFFFF;" d="M252.784,307.176c0-2.52-0.048-4.696-0.176-6.688h3.416l0.136,4.208h0.176
		c0.976-2.88,3.32-4.704,5.936-4.704c0.448,0,0.752,0.048,1.112,0.136v3.68c-0.4-0.088-0.8-0.136-1.336-0.136
		c-2.744,0-4.696,2.088-5.224,5.008c-0.088,0.528-0.176,1.16-0.176,1.824v11.432H252.8v-14.76H252.784z"/>
	<path style="fill:#FFFFFF;" d="M286.224,311.04c0,7.928-5.496,11.384-10.68,11.384c-5.808,0-10.272-4.248-10.272-11.032
		c0-7.176,4.696-11.392,10.632-11.392C282.064,300,286.224,304.48,286.224,311.04z M269.208,311.256c0,4.696,2.704,8.24,6.512,8.24
		c3.728,0,6.512-3.504,6.512-8.328c0-3.632-1.824-8.24-6.432-8.24C271.208,302.928,269.208,307.176,269.208,311.256z"/>
	<path style="fill:#FFFFFF;" d="M291.136,290.48h3.896v31.464h-3.896V290.48z"/>
	<path style="fill:#FFFFFF;" d="M301.584,290.48h3.896v31.464h-3.896V290.48z"/>
</g>
<g>
	<rect x="216.16" y="378.72" style="fill:#AAC1CE;" width="79.592" height="4"/>
	<rect x="152.32" y="414.592" style="fill:#AAC1CE;" width="207.44" height="4"/>
</g>
<g>
</g>
<g>
</g>
<g>
</g>
<g>
</g>
<g>
</g>
<g>
</g>
<g>
</g>
<g>
</g>
<g>
</g>
<g>
</g>
<g>
</g>
<g>
</g>
<g>
</g>
<g>
</g>
<g>
</g>
</svg>
